<svg xmlns="http://www.w3.org/2000/svg" viewBox="0 0 100 100">
  <rect width="100" height="100" fill="#1a1a1a"/>
  <!-- Left column -->
  <circle cx="16.4" cy="21.5" r="5.4" fill="#C8501A"/>
  <rect x="24" y="18.75" width="22.9" height="5.5" rx="2.75" fill="#464646"/>
  <circle cx="16.4" cy="37.5" r="5.4" fill="#534AB7"/>
  <rect x="24" y="34.75" width="17.5" height="5.5" rx="2.75" fill="#464646"/>
  <circle cx="16.4" cy="53.5" r="5.4" fill="#0F6E56"/>
  <rect x="24" y="50.75" width="20.2" height="5.5" rx="2.75" fill="#464646"/>
  <circle cx="16.4" cy="69.5" r="5.4" fill="#C03F6E"/>
  <rect x="24" y="66.75" width="14.7" height="5.5" rx="2.75" fill="#464646"/>
  <!-- Divider -->
  <rect x="53.5" y="7.7" width="1.3" height="84.6" fill="#2e2e2e"/>
  <!-- Right column -->
  <circle cx="62.4" cy="21.5" r="5.4" fill="#185FA5"/>
  <rect x="70" y="18.75" width="14.8" height="5.5" rx="2.75" fill="#464646"/>
  <circle cx="62.4" cy="37.5" r="5.4" fill="#BA7517"/>
  <rect x="70" y="34.75" width="10.6" height="5.5" rx="2.75" fill="#464646"/>
  <circle cx="62.4" cy="53.5" r="5.4" fill="#1D9E75"/>
  <rect x="70" y="50.75" width="12.7" height="5.5" rx="2.75" fill="#464646"/>
</svg>
